Coordinates
version=1
nRows=20
nColumns=38
inDegrees=no

Units are S.I. units (second, meters, Newtons, ...)
If the header above contains a line with 'inDegrees', this indicates whether rotational values are in degrees (yes) or radians (no).

endheader
time	pelvis_tilt	pelvis_list	pelvis_rotation	pelvis_tx	pelvis_ty	pelvis_tz	hip_flexion_r	hip_adduction_r	hip_rotation_r	knee_angle_r	ankle_angle_r	subtalar_angle_r	mtp_angle_r	hip_flexion_l	hip_adduction_l	hip_rotation_l	knee_angle_l	ankle_angle_l	subtalar_angle_l	mtp_angle_l	lumbar_extension	lumbar_bending	lumbar_rotation	arm_flex_r	arm_add_r	arm_rot_r	elbow_flex_r	pro_sup_r	wrist_flex_r	wrist_dev_r	arm_flex_l	arm_add_l	arm_rot_l	elbow_flex_l	pro_sup_l	wrist_flex_l	wrist_dev_l
0.92	-0.623622	1.44377	-0.942857	0.627974	0.316698	0.966238	-0.0772465	0.119647	-0.157521	0.102626	0.0292993	0	0	0.388898	-0.163613	-0.0192985	1.29398	-0.00751567	0	0	-0.15632	0.136128	-0.0187422	-0.0312275	-0.186002	0.131923	0.470685	1.12461	0	0	-0.185305	-0.191792	0.310759	0.631987	0.864536	0	0
0.93	-0.592078	1.44373	-0.985737	0.625799	0.308164	0.966751	-0.0935323	0.115762	-0.147769	0.0969723	0.0332354	0	0	0.395258	-0.163697	-0.0317317	1.26454	0.00546646	0	0	-0.162472	0.129557	-0.00725772	-0.0200857	-0.186987	0.145693	0.468199	1.1264	0	0	-0.190359	-0.190679	0.296561	0.635397	0.877435	0	0
0.94	-0.552326	1.44379	-1.03299	0.624421	0.299638	0.967231	-0.110842	0.1123	-0.1381	0.0890564	0.0353807	0	0	0.400532	-0.160291	-0.0415687	1.23178	0.0174395	0	0	-0.168506	0.123039	0.000531969	-0.00915576	-0.18825	0.156115	0.465957	1.1296	0	0	-0.194536	-0.188839	0.282519	0.639059	0.887837	0	0
0.95	-0.524402	1.44483	-1.06709	0.623186	0.29116	0.967433	-0.124964	0.109342	-0.13038	0.0832666	0.0380919	0	0	0.407153	-0.157825	-0.0514436	1.19651	0.0283732	0	0	-0.172363	0.117505	0.00727634	0.00128509	-0.189224	0.164299	0.464023	1.13297	0	0	-0.197982	-0.187633	0.273157	0.642102	0.893854	0	0
0.96	-0.501337	1.4466	-1.09523	0.622152	0.282701	0.967437	-0.136098	0.106159	-0.126022	0.0807854	0.0417427	0	0	0.41345	-0.155379	-0.0612549	1.15787	0.0388394	0	0	-0.174908	0.112475	0.0131085	0.0111281	-0.190289	0.171467	0.463383	1.13603	0	0	-0.200509	-0.186128	0.265953	0.642216	0.898409	0	0
0.97	-0.471952	1.44745	-1.12927	0.621195	0.274199	0.967497	-0.150611	0.103034	-0.117451	0.0738327	0.0431068	0	0	0.416278	-0.153307	-0.0733264	1.11478	0.0478938	0	0	-0.17864	0.10717	0.0183939	0.0212531	-0.19129	0.179416	0.462245	1.13973	0	0	-0.202283	-0.184484	0.258631	0.641483	0.903781	0	0
0.98	-0.499088	1.45381	-1.11	0.61759	0.266156	0.966321	-0.135552	0.0983436	-0.133661	0.109871	0.0656921	0	0	0.430232	-0.176482	-0.0942086	1.07397	0.0637262	0	0	-0.174168	0.101095	0.0292398	0.0295377	-0.187852	0.18417	0.461077	1.14235	0	0	-0.20498	-0.188794	0.255115	0.645113	0.906488	0	0
0.99	-0.411442	1.44876	-1.19928	0.619356	0.257185	0.967364	-0.175335	0.0956038	-0.106386	0.068415	0.0499835	0	0	0.41691	-0.151599	-0.106579	1.02081	0.0631835	0	0	-0.186193	0.0961888	0.0297228	0.0401506	-0.19272	0.190468	0.461131	1.14824	0	0	-0.204504	-0.182604	0.250242	0.639532	0.918402	0	0
1	-0.381433	1.44939	-1.23419	0.61851	0.248676	0.967139	-0.186087	0.0914761	-0.101903	0.0685135	0.0550759	0	0	0.415135	-0.151895	-0.128408	0.969995	0.0695688	0	0	-0.189794	0.0905922	0.036004	0.0489664	-0.193278	0.193916	0.461013	1.15109	0	0	-0.204717	-0.182253	0.248101	0.639213	0.92264	0	0
1.01	-0.351132	1.44985	-1.26885	0.617785	0.24011	0.966797	-0.19671	0.0871926	-0.0979984	0.0689766	0.0608167	0	0	0.412479	-0.152442	-0.152783	0.918598	0.075742	0	0	-0.19331	0.085048	0.0414351	0.0580604	-0.19372	0.197504	0.460139	1.15384	0	0	-0.205161	-0.182084	0.245594	0.639669	0.925549	0	0
1.02	-0.318865	1.45028	-1.30415	0.617294	0.231417	0.966323	-0.207431	0.0825961	-0.0957304	0.0693501	0.0672452	0	0	0.408615	-0.151817	-0.177234	0.865151	0.0808098	0	0	-0.196513	0.0795595	0.0456196	0.0663037	-0.194256	0.199837	0.460119	1.15616	0	0	-0.205533	-0.182001	0.243525	0.64001	0.927859	0	0
1.03	-0.284335	1.45024	-1.34128	0.616965	0.222618	0.965772	-0.218604	0.0775997	-0.0940322	0.0699826	0.0745958	0	0	0.403098	-0.15053	-0.203382	0.810162	0.085118	0	0	-0.200076	0.074055	0.0495316	0.0737686	-0.194936	0.200657	0.461054	1.15876	0	0	-0.2055	-0.181906	0.241861	0.640177	0.929038	0	0
1.04	-0.249011	1.45018	-1.37825	0.616849	0.213728	0.96512	-0.229385	0.0722615	-0.0940172	0.0714064	0.0830042	0	0	0.397415	-0.14822	-0.229923	0.755456	0.0891085	0	0	-0.203348	0.0686779	0.0524431	0.0807906	-0.195779	0.201217	0.462255	1.16132	0	0	-0.204964	-0.181624	0.240227	0.639561	0.928473	0	0
1.05	-0.210732	1.44999	-1.41719	0.616964	0.204732	0.964378	-0.239617	0.0662235	-0.0964741	0.0744001	0.0924305	0	0	0.391173	-0.144088	-0.257485	0.699933	0.0924775	0	0	-0.206452	0.0631897	0.0541956	0.0875273	-0.196732	0.201694	0.463531	1.16323	0	0	-0.204234	-0.181283	0.239397	0.638146	0.928594	0	0
1.06	-0.184457	1.45121	-1.44252	0.617329	0.195633	0.963342	-0.24772	0.0615943	-0.100717	0.0782178	0.101988	0	0	0.387998	-0.139775	-0.282161	0.647237	0.0973903	0	0	-0.207202	0.0594327	0.0541877	0.0937394	-0.198011	0.202749	0.46477	1.16434	0	0	-0.204029	-0.180788	0.239188	0.636539	0.929254	0	0
1.07	-0.148688	1.45178	-1.47733	0.617836	0.186427	0.962317	-0.256103	0.0554495	-0.106392	0.0833495	0.112768	0	0	0.382715	-0.132827	-0.305269	0.593305	0.102558	0	0	-0.208576	0.0546302	0.0538977	0.0998399	-0.199154	0.203724	0.465541	1.16578	0	0	-0.203528	-0.180353	0.239136	0.634413	0.930085	0	0
1.08	-0.111885	1.45221	-1.51255	0.61853	0.177121	0.961222	-0.264475	0.0491089	-0.11251	0.0888221	0.123758	0	0	0.377076	-0.123917	-0.324328	0.539708	0.108532	0	0	-0.209707	0.0499082	0.0529703	0.10559	-0.200299	0.204492	0.466018	1.1677	0	0	-0.202851	-0.179867	0.239439	0.631875	0.930906	0	0
1.09	-0.0719551	1.45269	-1.55045	0.619389	0.167692	0.960058	-0.272035	0.0421457	-0.119582	0.0959206	0.135613	0	0	0.370981	-0.112628	-0.33804	0.48574	0.114578	0	0	-0.210451	0.0449498	0.0516948	0.110759	-0.201511	0.204935	0.46652	1.16993	0	0	-0.201802	-0.179142	0.239897	0.628558	0.931718	0	0
1.1	-0.0224988	1.45282	-1.59771	0.620387	0.158154	0.958847	-0.278893	0.0336337	-0.128004	0.105142	0.148806	0	0	0.363312	-0.098026	-0.344443	0.430047	0.11923	0	0	-0.211159	0.0388124	0.0498645	0.115879	-0.202471	0.205254	0.466337	1.17294	0	0	-0.200672	-0.178449	0.240242	0.624847	0.932818	0	0
1.11	0.0260148	1.45321	-1.6442	0.62144	0.148474	0.957487	-0.285055	0.0252473	-0.135536	0.114906	0.161597	0	0	0.355597	-0.0824467	-0.34316	0.37495	0.12365	0	0	-0.210956	0.0328218	0.0479648	0.120588	-0.203312	0.205337	0.46575	1.17696	0	0	-0.200115	-0.177863	0.240277	0.621746	0.934104	0	0
